<?xml version="1.0" encoding="utf-8"?>
<!-- Generator: Adobe Illustrator 16.0.4, SVG Export Plug-In . SVG Version: 6.00 Build 0)  -->
<!DOCTYPE svg PUBLIC "-//W3C//DTD SVG 1.1//EN" "http://www.w3.org/Graphics/SVG/1.1/DTD/svg11.dtd">
<svg version="1.1" id="Layer_1" xmlns="http://www.w3.org/2000/svg" xmlns:xlink="http://www.w3.org/1999/xlink" x="0px" y="0px"
	 width="53.601px" height="52.04px" viewBox="0 0 53.601 52.04" enable-background="new 0 0 53.601 52.04" xml:space="preserve">
<path fill="#FFFFFF" d="M26.8,8.319c-9.818,0-17.806,7.987-17.806,17.807c0,9.817,7.987,17.806,17.806,17.806
	c9.82,0,17.807-7.988,17.807-17.806C44.607,16.307,36.621,8.319,26.8,8.319z M32.154,28h-5.553v10h-4V28h-2v-3h2v-5.041
	c0-2.561,2.437-4.905,6.246-4.905c1.541,0,3.076,0.151,3.076,0.151l0.097,3.554c0,0-1.857-0.003-3.126-0.003
	c-1.367,0-2.292,0.628-2.292,1.677V25h5.725L32.154,28z"/>
</svg>
