<?xml version="1.0" encoding="utf-8"?>
<!-- Generator: Adobe Illustrator 16.0.4, SVG Export Plug-In . SVG Version: 6.00 Build 0)  -->
<!DOCTYPE svg PUBLIC "-//W3C//DTD SVG 1.1//EN" "http://www.w3.org/Graphics/SVG/1.1/DTD/svg11.dtd">
<svg version="1.1" id="Layer_1" xmlns="http://www.w3.org/2000/svg" xmlns:xlink="http://www.w3.org/1999/xlink" x="0px" y="0px"
	 width="53.601px" height="52.04px" viewBox="0 0 53.601 52.04" enable-background="new 0 0 53.601 52.04" xml:space="preserve">
<g>
	<path fill="#FFFFFF" d="M25.209,8.507c-9.819,0-17.807,7.987-17.807,17.807c0,9.817,7.987,17.806,17.807,17.806
		s17.807-7.988,17.807-17.806C43.016,16.494,35.029,8.507,25.209,8.507z M12.243,29.143c-0.009,0.063-0.054,0.105-0.108,0.105
		c-0.057,0-0.101-0.043-0.109-0.105l-0.197-1.479l0.197-1.505c0.009-0.061,0.053-0.104,0.109-0.104c0.055,0,0.1,0.043,0.108,0.104
		l0.234,1.505L12.243,29.143z M13.248,30.044c-0.009,0.063-0.056,0.109-0.112,0.109s-0.104-0.046-0.112-0.11l-0.266-2.379
		l0.266-2.433c0.008-0.063,0.056-0.109,0.112-0.109s0.104,0.045,0.112,0.109l0.304,2.433L13.248,30.044z M14.335,30.446
		c-0.009,0.076-0.065,0.132-0.136,0.132c-0.072,0-0.129-0.056-0.136-0.133l-0.253-2.781l0.253-2.887
		c0.007-0.075,0.063-0.132,0.136-0.132c0.07,0,0.127,0.057,0.136,0.132l0.287,2.887L14.335,30.446z M15.432,30.534
		c-0.008,0.088-0.077,0.155-0.159,0.155c-0.084,0-0.152-0.067-0.16-0.155l-0.238-2.868l0.238-2.967
		c0.008-0.089,0.076-0.156,0.16-0.156c0.082,0,0.151,0.067,0.159,0.156l0.271,2.967L15.432,30.534z M16.536,30.558
		c-0.007,0.102-0.085,0.18-0.182,0.18c-0.098,0-0.176-0.078-0.182-0.18l-0.226-2.892l0.226-2.752c0.006-0.103,0.084-0.18,0.182-0.18
		c0.097,0,0.175,0.077,0.182,0.18l0.256,2.752L16.536,30.558z M17.65,30.559L17.65,30.559c-0.008,0.112-0.098,0.203-0.205,0.203
		c-0.11,0-0.2-0.091-0.205-0.203l-0.213-2.893l0.213-4.476c0.005-0.113,0.095-0.202,0.205-0.202c0.107,0,0.197,0.089,0.205,0.202
		l0.239,4.476L17.65,30.559z M16.601,30.557v-0.002c0,0.127,0.969,0.227,0.847,0.227s0.319-0.1,0.312-0.225l0.069-2.875l0.335-5.498
		c0.006-0.128,0.172-0.226,0.294-0.226c0.123,0-1.046,0.098-1.042,0.226l-0.816,5.498V30.557z M19.902,30.513L19.902,30.513
		c-0.006,0.139-0.115,0.247-0.251,0.247s-0.246-0.109-0.251-0.247l-0.185-2.845L19.4,21.71c0.005-0.141,0.115-0.25,0.251-0.25
		s0.245,0.109,0.251,0.25l0.209,5.958L19.902,30.513z M21.042,30.493c-0.004,0.153-0.125,0.273-0.274,0.273s-0.27-0.12-0.273-0.271
		l-0.171-2.827l0.17-6.159c0.005-0.151,0.125-0.272,0.274-0.272s0.271,0.121,0.274,0.272l0.192,6.159L21.042,30.493z M19.601,30.469
		v-0.002c0,0.166,1.158,0.296,0.995,0.296s0.356-0.13,0.353-0.294l0.165-2.801l0.319-6.001c0.004-0.166,0.215-0.296,0.378-0.296
		s0.333,0.13,0.338,0.296l-1.098,6.001L19.601,30.469z M21.601,30.451v-0.002c0,0.18,0.318,0.319,0.143,0.319
		C21.567,30.769,21.601,30.629,21.601,30.451v-2.783l0.624-5.781c0.004-0.18,0.384-0.319,0.561-0.319
		c0.176,0,0.438,0.139,0.442,0.319l-0.655,5.781L21.601,30.451z M24.527,30.158l-0.015,0.273c-0.001,0.094-0.04,0.18-0.103,0.242
		c-0.062,0.062-0.147,0.1-0.241,0.1c-0.104,0-1.313-0.049-1.376-0.124c-0.047-0.057-1.191-0.127-1.191-0.204
		c0-0.004,0-0.009,0-0.011c0,0-0.129-2.763-0.129-2.767l0.129-6.814v-0.065c0-0.119,1.175-0.225,1.27-0.286
		c0.053-0.036,0.677-0.056,0.743-0.056c0.071,0,0.411,0.021,0.466,0.059c0.092,0.062,0.291,0.166,0.293,0.283l0.215,6.882
		L24.527,30.158z M23.601,30.395v-0.003c0,0.201,0.867,0.365,0.668,0.365c-0.2,0,0.156-0.164,0.153-0.362l0.183-1.345l-1.114-1.379
		l-0.89-7.469v-0.036c0-0.115,1.222-0.215,1.304-0.283c0.063-0.052,0.73-0.083,0.818-0.083c0.067,0-0.093,0.02-0.039,0.052
		c0.106,0.065-0.083,0.18-0.083,0.312v7.507L23.601,30.395z M35.583,30.04c0,0-9.227,0-9.235,0c-0.199,0-2.746,0.546-2.746,0.343
		V19.81c0-0.195,1.261-0.296,1.513-0.394c0.646-0.249,1.978-0.397,2.729-0.397c3.072,0,5.887,2.355,6.15,5.358
		c0.396-0.167,0.982-0.259,1.439-0.259c1.84,0,3.407,1.129,3.407,2.969S37.422,30.04,35.583,30.04z"/>
</g>
</svg>
