<?xml version="1.0" encoding="utf-8"?>
<!-- Generator: Adobe Illustrator 16.0.4, SVG Export Plug-In . SVG Version: 6.00 Build 0)  -->
<!DOCTYPE svg PUBLIC "-//W3C//DTD SVG 1.1//EN" "http://www.w3.org/Graphics/SVG/1.1/DTD/svg11.dtd">
<svg version="1.1" id="Layer_1" xmlns="http://www.w3.org/2000/svg" xmlns:xlink="http://www.w3.org/1999/xlink" x="0px" y="0px"
	 width="53.601px" height="52.04px" viewBox="0 0 53.601 52.04" enable-background="new 0 0 53.601 52.04" xml:space="preserve">
<g>
	<path fill="#FFFFFF" d="M26.802,7.714c-9.82,0-17.809,7.988-17.809,17.806c0,9.818,7.988,17.807,17.809,17.807
		c9.817,0,17.805-7.988,17.805-17.807C44.607,15.702,36.62,7.714,26.802,7.714z M35.683,21.959c0.01,0.186,0.016,0.369,0.016,0.557
		c0,5.693-4.329,12.252-12.252,12.252c-2.432,0-4.694-0.714-6.599-1.935c0.337,0.04,0.679,0.06,1.026,0.06
		c2.018,0,3.873-0.687,5.346-1.84c-1.883-0.036-3.472-1.279-4.02-2.988c0.262,0.047,0.531,0.075,0.809,0.075
		c0.394,0-0.573-0.053-0.211-0.151C17.827,27.592,15,25.849,15,23.764c0-0.019,0-0.037,0-0.054c1,0.321,2.586,0.515,3.294,0.537
		c-1.155-0.771-1.239-2.09-1.239-3.582c0-0.79,0.545-1.528,0.916-2.165c2.124,2.604,5.465,4.318,9.041,4.498
		c-0.073-0.313-0.027-0.644-0.027-0.98c0-2.378,1.976-4.305,4.351-4.305c1.24,0,2.381,0.523,3.167,1.36
		c0.977-0.195,1.911-0.554,2.741-1.047c-0.32,1.006-1.002,1.851-1.888,2.383c0.869-0.104,1.702-0.336,2.477-0.679
		C37.252,20.595,36.529,21.354,35.683,21.959z"/>
</g>
</svg>
